<?xml version="1.0" encoding="utf-8"?>
<!-- Generator: Adobe Illustrator 16.0.0, SVG Export Plug-In . SVG Version: 6.00 Build 0)  -->
<!DOCTYPE svg PUBLIC "-//W3C//DTD SVG 1.1//EN" "http://www.w3.org/Graphics/SVG/1.1/DTD/svg11.dtd">
<svg version="1.1" id="Layer_1" xmlns="http://www.w3.org/2000/svg" xmlns:xlink="http://www.w3.org/1999/xlink" x="0px" y="0px"
	 width="130px" height="130px" viewBox="0 0 130 130" enable-background="new 0 0 130 130" xml:space="preserve">
<g>
	<g>
		<g>
			<path fill="#4028EA" d="M105.133,10.223l-12.82-7.345c-0.561-0.409-1.162-0.754-1.801-1.032l-0.189-0.107l-0.008,0.016
				c-3.449-1.402-7.904-0.896-12.764,1.909L38.064,26.459c-10.857,6.268-19.74,21.655-19.74,34.193v45.591
				c0,6.114,2.123,10.45,5.547,12.577l-0.033,0.06l14.248,8.073l8.012-13.95l31.453-18.157c10.855-6.269,19.74-21.656,19.74-34.193
				V23.875L105.133,10.223z"/>
			<path fill="#1B1BB2" d="M105.133,10.223L91.41,7.004c-0.561-0.408-3.363-0.398-4.002-0.678L86.391,5.92L84.559,5.58
				c-3.449-1.402-2.148-4.721-7.008-1.916L38.064,26.459c-10.857,6.268-19.74,21.655-19.74,34.193v45.591
				c0,6.114,2.123,10.45,5.547,12.577l-0.033,0.06l14.248,8.073l8.012-13.95l31.453-18.157c10.855-6.269,19.74-21.656,19.74-34.193
				V23.875L105.133,10.223z"/>
			<path fill="#0B0B84" d="M19.076,54.084c-0.479,2.232-0.752,4.442-0.752,6.568v45.591c0,6.114,2.123,10.45,5.547,12.577
				l-0.033,0.06l14.248,8.073l8.012-13.95l31.453-18.157c1.844-1.065,3.627-2.41,5.322-3.945L19.076,54.084z"/>
			<g>
				<path fill="#1E1EAF" d="M51.635,34.329c-10.857,6.268-19.742,21.656-19.742,34.193v45.592c0,12.537,8.885,17.666,19.742,11.396
					l39.484-22.795c10.857-6.268,19.742-21.655,19.742-34.193V22.93c0-12.537-8.885-17.665-19.742-11.396L51.635,34.329z"/>
				<path fill="#1919A5" d="M110.861,22.93c0-12.537-8.885-17.665-19.742-11.396L51.635,34.329
					c-10.857,6.268-19.742,21.656-19.742,34.193v45.592c0,12.537,8.885,17.666,19.742,11.396"/>
				<path fill="#0B0B84" d="M42.865,129h-0.002c-7.158,0-11.783-5.843-11.783-14.886V68.522c0-12.828,9.037-28.484,20.146-34.898
					l39.486-22.795c3.201-1.848,6.289-2.784,9.178-2.784c7.158,0,11.785,5.844,11.785,14.886v45.592
					c0,12.829-9.039,28.484-20.148,34.898l-39.486,22.795C48.84,128.063,45.754,129,42.865,129z M99.891,9.672
					c-2.6,0-5.414,0.863-8.363,2.564L52.041,35.034c-10.66,6.155-19.334,21.178-19.334,33.488v45.592
					c0,8.178,3.891,13.258,10.156,13.258h0.002c2.6,0,5.412-0.863,8.361-2.564l39.486-22.797
					c10.66-6.154,19.334-21.178,19.334-33.488V22.93C110.047,14.752,106.156,9.672,99.891,9.672z"/>
			</g>
		</g>
	</g>
	<g>
		<g enable-background="new    ">
			<g>
				<path fill="#47BBF4" d="M49.745,95.128l-0.031-11.283l9.193-5.307c1.6-0.904,2.842-1.386,3.727-1.434
					c1.593-0.098,2.384,0.957,2.391,3.166c0.006,2.607-0.802,4.821-2.434,6.699c-0.901,1.015-2.16,1.988-3.777,2.922L49.745,95.128
					 M49.694,76.843l-0.026-9.33l8.13-4.695c1.777-1.025,3.252-1.65,4.406-1.885c1.342-0.14,2.016,0.779,2.021,2.75
					c0.004,1.776-0.502,3.312-1.509,4.593c-1.017,1.286-2.329,2.394-3.945,3.327L49.694,76.843 M60.242,54.044l-18.028,10.41
					l0.119,42.304l16.814-9.708c1.894-1.094,3.653-2.294,5.27-3.605c1.615-1.325,3.025-2.838,4.21-4.561
					c1.052-1.514,1.935-3.131,2.626-4.848c1.112-2.637,1.659-5.205,1.652-7.71c-0.007-2.434-0.496-4.229-1.475-5.359
					c-0.979-1.142-2.42-1.552-4.324-1.246c1.256-1.454,2.201-2.804,2.842-4.058c1.148-2.235,1.724-4.645,1.716-7.231
					c-0.007-2.503-0.594-4.315-1.733-5.458C68.019,51.138,64.799,51.496,60.242,54.044"/>
				<polyline fill="#47BBF4" points="96.797,34.924 80.805,44.157 80.819,49.414 96.812,40.181 96.797,34.924 				"/>
				<path fill="#81DFFC" d="M82.725,64.673c0.263-2.188,0.901-4.182,1.915-5.959c1.016-1.779,2.452-3.205,4.303-4.272
					c1.706-0.985,3.127-1.241,4.293-0.794c1.146,0.471,1.793,1.742,1.934,3.841L82.725,64.673 M88.913,47.703
					c-4.037,2.332-7.321,5.676-9.851,10.034c-2.521,4.347-3.776,9.237-3.761,14.658c0.016,5.776,1.422,9.161,4.243,10.093
					c2.812,0.947,6.06,0.357,9.731-1.762c4.448-2.569,7.91-6.09,10.367-10.553c1.586-2.838,2.473-5.242,2.664-7.204l-7.37,4.257
					c-0.426,1.17-0.915,2.162-1.476,3.012c-1.025,1.549-2.365,2.794-4,3.738c-1.555,0.897-2.886,1.275-3.988,1.119
					c-1.816-0.205-2.779-1.86-2.903-4.924l20.101-11.605c0.029-2.723-0.058-4.76-0.259-6.072c-0.337-2.263-1.075-3.996-2.224-5.193
					c-1.258-1.393-2.843-2.02-4.775-1.88C93.489,45.554,91.326,46.308,88.913,47.703"/>
				<path fill="#47BBF4" d="M95.413,45.42c-1.924,0.134-4.087,0.888-6.5,2.282c-4.037,2.332-7.321,5.676-9.851,10.034
					c-2.521,4.347-3.776,9.237-3.761,14.658c0.012,4.017,0.695,6.874,2.06,8.557l5.365-9.292c-0.075-0.456-0.134-0.942-0.156-1.488
					l1.522-0.88l4.686-8.113l-6.054,3.495c0.263-2.188,0.901-4.182,1.915-5.959c1.016-1.779,2.452-3.205,4.303-4.272
					c1.662-0.96,3.052-1.223,4.199-0.822l4.585-7.94C97.019,45.452,96.25,45.36,95.413,45.42z"/>
			</g>
		</g>
	</g>
</g>
</svg>
