<svg width="163" height="163" viewBox="0 0 163 163" fill="none" xmlns="http://www.w3.org/2000/svg">
<path d="M117.46 95.0801V103.17C117.46 116.83 100.26 127.79 80.7501 127.79H79.2201C69.4101 127.79 61.1201 124.18 55.3701 118.25C57.6565 124.59 61.8516 130.065 67.378 133.923C72.9045 137.78 79.4907 139.83 86.2301 139.79H87.7601C107.27 139.79 123.47 128.09 123.47 114.43V87.8501C123.46 91.7301 120.46 94.8801 117.46 95.0801Z" fill="#F49BB5"/>
<path d="M117.46 69.6899V76.5899C117.46 80.5899 112.46 83.8299 108.46 83.8299V88.4399C108.46 90.4291 109.25 92.3367 110.657 93.7432C112.063 95.1498 113.971 95.9399 115.96 95.9399C117.949 95.9399 119.857 95.1498 121.263 93.7432C122.67 92.3367 123.46 90.4291 123.46 88.4399V76.9299C123.46 72.9199 120.46 69.6899 117.46 69.6899Z" fill="#F49BB5"/>
<path d="M84.2202 83.78L83.7802 83.55C82.5445 82.922 81.2563 82.4034 79.9302 82V82.77H80.5002C81.8202 82.77 83.2702 83.37 84.7402 83.5C84.5802 83.44 84.4002 83.85 84.2202 83.78Z" fill="#F49BB5"/>
<path d="M97.85 33.7001C96.3292 33.5217 94.7912 33.8335 93.46 34.5901C94.4846 36.0435 94.9368 37.8239 94.73 39.5901L90.24 58.3201C88.6399 58.687 87.2059 59.5722 86.1607 60.838C85.1154 62.1039 84.5176 63.6795 84.46 65.3201V84.0001C87.3648 84.2261 90.232 84.8002 93 85.7101L94.08 85.9401C94.3 86.0301 93.41 86.1401 95.41 86.2401V67.5301C95.41 64.1101 97.24 61.2401 100.41 60.5301L104.41 41.7901C104.59 39.8519 104.005 37.9202 102.779 36.4082C101.553 34.8963 99.7835 33.9243 97.85 33.7001V33.7001Z" fill="#F49BB5"/>
<path d="M116.06 63.9299V75.4399C116.06 77.3628 115.296 79.2068 113.937 80.5665C112.577 81.9261 110.733 82.6899 108.81 82.6899C106.887 82.6899 105.043 81.9261 103.684 80.5665C102.324 79.2068 101.56 77.3628 101.56 75.4399V63.9299C101.56 62.0071 102.324 60.163 103.684 58.8034C105.043 57.4438 106.887 56.6799 108.81 56.6799C110.733 56.6799 112.577 57.4438 113.937 58.8034C115.296 60.163 116.06 62.0071 116.06 63.9299V63.9299Z" fill="#FCE7D0"/>
<path d="M92.6198 51.43C93.1756 51.2895 93.7466 51.219 94.3198 51.22C96.2409 51.2226 98.0824 51.9876 99.4399 53.347C100.797 54.7063 101.56 56.5489 101.56 58.47V76.59C101.56 78.5101 100.797 80.3517 99.4393 81.7094C98.0815 83.0672 96.24 83.83 94.3198 83.83C93.399 83.7208 92.4844 83.5639 91.5798 83.36C91.5198 79.76 89.1598 78.15 87.0698 77.18V58.48C87.0676 56.852 87.6141 55.2708 88.6211 53.9916C89.6281 52.7124 91.0368 51.81 92.6198 51.43V51.43Z" fill="#FCE7D0"/>
<path d="M87.0601 58.48V77.19L86.3701 76.89L85.9301 76.66C82.5001 75.36 77.2401 74.79 73.1901 74.72H72.6201L72.5601 71.33L82.4801 31C82.7713 29.1491 83.7677 27.4828 85.2606 26.3504C86.7534 25.2181 88.6267 24.7077 90.4876 24.9262C92.3485 25.1448 94.0526 26.0753 95.2425 27.5227C96.4323 28.9701 97.0156 30.822 96.8701 32.69L92.6201 51.43C91.0352 51.8081 89.6242 52.7097 88.6152 53.9891C87.6063 55.2684 87.0583 56.8507 87.0601 58.48V58.48Z" fill="#FCE7D0"/>
<path d="M72.5602 71.3301L72.6202 74.7201C66.8975 74.5926 61.2863 76.3145 56.6202 79.6301L47.2002 34.6301L47.4802 35.5001C47.0161 33.633 47.3127 31.658 48.3047 30.0095C49.2968 28.3611 50.9031 27.1742 52.7702 26.7101C54.6373 26.246 56.6123 26.5426 58.2608 27.5347C59.9092 28.5267 61.0961 30.133 61.5602 32.0001L72.5602 71.3301Z" fill="#FCE7D0"/>
<path d="M94.3202 83.83C96.2403 83.83 98.0819 83.0672 99.4396 81.7094C100.797 80.3517 101.56 78.5101 101.56 76.59C101.56 78.5128 102.324 80.3569 103.684 81.7165C105.043 83.0761 106.887 83.84 108.81 83.84C110.733 83.84 112.577 83.0761 113.937 81.7165C115.296 80.3569 116.06 78.5128 116.06 76.59V103.16C116.06 116.82 100.51 128.16 81.3302 127.9H79.8302C61.0902 127.9 47.9302 112.9 47.9302 97.61V96.41C47.9604 93.1252 48.7649 89.8938 50.2783 86.9783C51.7917 84.0627 53.9713 81.5451 56.6402 79.63C61.3063 76.3144 66.9175 74.5925 72.6402 74.72H73.2102C77.2602 74.79 82.5202 75.36 85.9502 76.66L86.3902 76.89L87.0802 77.19C89.1702 78.19 91.5302 79.76 91.5902 83.37C92.4916 83.5702 93.4029 83.7237 94.3202 83.83V83.83Z" fill="#FCE7D0"/>
<path d="M109 83.8301C108.07 83.816 107.151 83.6165 106.299 83.2433C105.446 82.8701 104.677 82.3307 104.035 81.6566C103.394 80.9824 102.893 80.1871 102.562 79.3172C102.232 78.4473 102.078 77.5201 102.11 76.5901C102.11 79.8201 99.45 82.5901 97.45 83.4801V103.16C97.45 114.33 86.58 123.89 72.29 126.88C74.7481 127.499 77.2753 127.802 79.81 127.78H81.31C100.49 127.78 116.45 116.78 116.45 103.16V76.5901C116.403 78.5318 115.596 80.3777 114.203 81.7314C112.811 83.085 110.942 83.8385 109 83.8301Z" fill="#F4C7AD"/>
<path d="M116.06 65.0801V76.5901C116.06 78.5129 115.296 80.357 113.937 81.7166C112.577 83.0762 110.733 83.8401 108.81 83.8401C106.887 83.8401 105.043 83.0762 103.684 81.7166C102.324 80.357 101.56 78.5129 101.56 76.5901V65.0801C101.56 63.1573 102.324 61.3132 103.684 59.9536C105.043 58.5939 106.887 57.8301 108.81 57.8301C110.733 57.8301 112.577 58.5939 113.937 59.9536C115.296 61.3132 116.06 63.1573 116.06 65.0801V65.0801Z" fill="#F4C7AD"/>
<path d="M108.8 85.3301C106.483 85.3274 104.261 84.4058 102.623 82.7673C100.984 81.1288 100.063 78.9073 100.06 76.5901C100.06 76.1923 100.218 75.8107 100.499 75.5294C100.781 75.2481 101.162 75.0901 101.56 75.0901C101.958 75.0901 102.339 75.2481 102.621 75.5294C102.902 75.8107 103.06 76.1923 103.06 76.5901C103.06 78.1151 103.666 79.5776 104.744 80.656C105.823 81.7343 107.285 82.3401 108.81 82.3401C110.335 82.3401 111.798 81.7343 112.876 80.656C113.954 79.5776 114.56 78.1151 114.56 76.5901C114.56 76.1923 114.718 75.8107 114.999 75.5294C115.281 75.2481 115.662 75.0901 116.06 75.0901C116.458 75.0901 116.839 75.2481 117.121 75.5294C117.402 75.8107 117.56 76.1923 117.56 76.5901C117.555 78.9099 116.63 81.1329 114.987 82.7714C113.345 84.4099 111.12 85.3301 108.8 85.3301V85.3301Z" fill="#5A150B"/>
<path d="M94.2701 51.22C93.7068 51.2194 93.1457 51.2899 92.6001 51.43H92.7601C94.3496 51.8057 95.7707 52.6953 96.8031 53.9609C97.8355 55.2265 98.4214 56.7974 98.4701 58.43V76.59C98.4339 78.2065 97.8685 79.7666 96.8606 81.031C95.8527 82.2954 94.4579 83.1943 92.8901 83.59C93.3742 83.7025 93.8653 83.7827 94.3601 83.83C95.3041 83.8274 96.2381 83.6375 97.1081 83.2711C97.9781 82.9048 98.7667 82.3693 99.4281 81.6958C100.09 81.0223 100.611 80.2241 100.961 79.3477C101.312 78.4712 101.485 77.5338 101.47 76.59V58.48C101.477 57.5298 101.295 56.5877 100.937 55.7078C100.578 54.8279 100.049 54.0276 99.3796 53.3529C98.7105 52.6782 97.9146 52.1425 97.0378 51.7764C96.1609 51.4104 95.2203 51.2213 94.2701 51.22V51.22Z" fill="#F4C7AD"/>
<path d="M56.8601 33.5L67.8601 72.86V75.07C69.4189 74.8337 70.9934 74.7167 72.5701 74.72L72.5101 71.33L61.5601 32C61.2731 30.8238 60.6961 29.7383 59.8819 28.8423C59.0676 27.9464 58.0419 27.2686 56.8984 26.8709C55.755 26.4732 54.5301 26.3681 53.3356 26.5654C52.1411 26.7626 51.015 27.2558 50.0601 28C51.6373 28.0532 53.1542 28.6188 54.3812 29.6112C55.6082 30.6036 56.4784 31.9688 56.8601 33.5V33.5Z" fill="#F4C7AD"/>
<path d="M55.1602 79.9401L45.7402 34.9401C45.6745 34.691 45.6745 34.4292 45.7402 34.1801C45.5805 31.9793 46.2583 29.7995 47.6376 28.0772C49.017 26.3549 50.9961 25.2174 53.1786 24.8924C55.3611 24.5674 57.5858 25.079 59.4071 26.3247C61.2284 27.5705 62.5117 29.4583 63.0002 31.6101L72.4602 65.4301L81.0002 30.7301C81.3519 28.4876 82.5613 26.4696 84.3731 25.1021C86.1848 23.7346 88.4571 23.1247 90.7101 23.4011C92.9631 23.6775 95.0205 24.8187 96.4479 26.5836C97.8753 28.3485 98.561 30.5991 98.3602 32.8601C98.3602 32.9101 98.3602 32.9701 98.3602 33.0201L94.0002 52.0001L91.0702 51.3401L95.3702 32.4301C95.5258 30.9348 95.0896 29.438 94.155 28.2604C93.2204 27.0828 91.8618 26.3181 90.3702 26.1301C88.8626 25.9495 87.345 26.3746 86.1506 27.3121C84.9563 28.2496 84.1828 29.6228 84.0002 31.1301C84.0042 31.1934 84.0042 31.2568 84.0002 31.3201L74.0002 71.6901C73.9209 72.0112 73.7376 72.2971 73.479 72.5032C73.2204 72.7094 72.9009 72.8243 72.5702 72.8301C72.2371 72.839 71.9108 72.7352 71.644 72.5356C71.3772 72.336 71.1856 72.0522 71.1002 71.7301L60.1002 32.3701C59.9187 31.6325 59.5936 30.9379 59.1435 30.3261C58.6934 29.7142 58.1271 29.197 57.477 28.8042C56.8268 28.4113 56.1057 28.1505 55.3547 28.0365C54.6037 27.9226 53.8376 27.9578 53.1002 28.1401C52.3633 28.3213 51.6695 28.6466 51.0589 29.0971C50.4483 29.5477 49.9329 30.1147 49.5425 30.7655C49.152 31.4162 48.8943 32.1378 48.784 32.8886C48.6738 33.6394 48.7133 34.4046 48.9002 35.1401C48.9379 35.3316 48.9379 35.5286 48.9002 35.7201L58.1002 79.3301L55.1602 79.9401Z" fill="#5A150B"/>
<path d="M94.3198 85.33C93.403 85.2552 92.4935 85.108 91.5998 84.89L91.2898 84.83L91.8598 81.89L92.1898 82C93.3798 82.24 94.0998 82.37 94.3198 82.38C95.8396 82.3747 97.2955 81.768 98.3692 80.6924C99.4429 79.6168 100.047 78.1598 100.05 76.64V58.48C100.047 56.9575 99.4419 55.4981 98.3663 54.4206C97.2907 53.3431 95.8322 52.7353 94.3098 52.73C93.8615 52.7275 93.4147 52.7813 92.9798 52.89C91.7174 53.1822 90.5916 53.8944 89.7868 54.91C88.982 55.9255 88.5459 57.1842 88.5498 58.48V77.19H85.5498V58.48C85.5497 56.5159 86.2135 54.6094 87.4334 53.07C88.6533 51.5306 90.3576 50.4487 92.2698 50C92.9239 49.8359 93.5955 49.752 94.2698 49.75C96.5879 49.7553 98.8094 50.6792 100.448 52.3193C102.086 53.9593 103.007 56.1819 103.01 58.5V76.59C103.007 78.8985 102.092 81.1125 100.465 82.7496C98.837 84.3867 96.6283 85.3142 94.3198 85.33V85.33Z" fill="#5A150B"/>
<path d="M81.9999 129.41H79.8199C59.1899 129.41 46.4199 112.91 46.4199 97.6201V96.4101C46.4386 92.8864 47.2931 89.4174 48.9133 86.2883C50.5335 83.1591 52.8732 80.4591 55.7399 78.4101C60.6618 74.9071 66.58 73.0805 72.6199 73.2001H73.1899C77.1899 73.2701 82.7599 73.8401 86.4599 75.2001L86.6299 75.2801L86.9999 75.5301L87.6599 75.8201C89.2094 76.3877 90.5521 77.4085 91.5134 78.7497C92.4747 80.0909 93.0101 81.6904 93.0499 83.3401C93.0847 85.6583 92.199 87.8958 90.587 89.5622C88.975 91.2286 86.7681 92.188 84.4499 92.2301L76.0899 92.8801C73.5099 95.3334 70.9199 97.7801 68.3199 100.22C68.0255 100.489 67.6363 100.63 67.2377 100.613C66.8392 100.595 66.4641 100.419 66.1949 100.125C65.9257 99.8307 65.7845 99.4414 65.8023 99.0429C65.8201 98.6444 65.9955 98.2693 66.2899 98.0001C69.0099 95.4401 71.7266 92.8734 74.4399 90.3001C74.6902 90.0615 75.0152 89.9166 75.3599 89.8901L84.3599 89.1901C85.1215 89.1849 85.8746 89.0292 86.5758 88.732C87.277 88.4348 87.9126 88.0019 88.446 87.4583C88.9794 86.9147 89.4001 86.271 89.684 85.5643C89.9678 84.8575 90.1092 84.1016 90.0999 83.3401C90.0999 81.1101 88.9799 79.6601 86.4599 78.5001L85.8199 78.2201L85.6999 78.1601L85.3199 78.0001C81.9799 76.7601 76.8599 76.2501 73.1699 76.1901H72.6199C67.2214 76.0712 61.9277 77.6908 57.5199 80.8101C55.0353 82.5804 53.0057 84.9146 51.5977 87.6211C50.1897 90.3276 49.4434 93.3293 49.4199 96.3801V97.5701C49.4199 114.79 65.1399 126.36 79.8199 126.36H81.3199C91.9499 126.5 102.07 122.89 108.32 116.67C112.32 112.67 114.51 107.99 114.51 103.12V65.0801C114.51 63.5551 113.904 62.0925 112.826 61.0142C111.747 59.9359 110.285 59.3301 108.76 59.3301C107.235 59.3301 105.772 59.9359 104.694 61.0142C103.616 62.0925 103.01 63.5551 103.01 65.0801C103.01 65.4779 102.852 65.8594 102.571 66.1407C102.289 66.422 101.908 66.5801 101.51 66.5801C101.112 66.5801 100.731 66.422 100.449 66.1407C100.168 65.8594 100.01 65.4779 100.01 65.0801C100.01 62.7594 100.932 60.5338 102.573 58.8929C104.214 57.2519 106.439 56.3301 108.76 56.3301C111.081 56.3301 113.306 57.2519 114.947 58.8929C116.588 60.5338 117.51 62.7594 117.51 65.0801V103.17C117.51 108.86 115.06 114.29 110.43 118.86C103.75 125.48 93.1299 129.4 81.9999 129.41Z" fill="#5A150B"/>
</svg>
