<svg width="163" height="163" viewBox="0 0 163 163" fill="none" xmlns="http://www.w3.org/2000/svg">
<path d="M117.46 95.2901V103.38C117.46 117.04 100.3 127.78 80.7902 127.78H79.2602C69.4502 127.78 61.1602 124.17 55.4102 118.24C57.6965 124.58 61.8916 130.055 67.4181 133.913C72.9446 137.77 79.5307 139.82 86.2702 139.78H87.8002C107.31 139.78 123.47 128.3 123.47 114.64V88.0701C123.46 92.0001 120.46 95.1001 117.46 95.2901Z" fill="#F7C726"/>
<path d="M117.46 69.8999V76.7999C117.46 80.7999 112.46 84.0399 108.46 84.0399V88.6499C108.46 90.639 109.25 92.5467 110.657 93.9532C112.063 95.3597 113.971 96.1499 115.96 96.1499C117.949 96.1499 119.857 95.3597 121.263 93.9532C122.67 92.5467 123.46 90.639 123.46 88.6499V77.1499C123.46 73.1399 120.46 69.9099 117.46 69.8999Z" fill="#F7C726"/>
<path d="M84.27 84.0001L83.83 83.7701C82.6042 83.1089 81.3226 82.5568 80 82.1201V82.7801H80.57C81.89 82.7801 83.34 83.4901 84.81 83.6201C84.62 83.5501 84.44 84.0701 84.27 84.0001Z" fill="#F7C726"/>
<path d="M97.89 33.92C96.3692 33.7417 94.8312 34.0535 93.5 34.81C94.5246 36.2634 94.9768 38.0439 94.77 39.81L90.26 58.53C88.657 58.8947 87.2194 59.7787 86.1706 61.0445C85.1217 62.3104 84.5204 63.8872 84.46 65.53V84.24C87.3836 84.4533 90.271 85.0174 93.06 85.92L94.13 86.15C94.35 86.24 93.45 86.35 95.45 86.45V67.74C95.45 64.32 97.3 61.45 100.45 60.74L104.45 42C104.627 40.0635 104.041 38.1343 102.815 36.6246C101.589 35.1149 99.8217 34.1442 97.89 33.92V33.92Z" fill="#F7C726"/>
<path d="M116.1 64.1499V75.6599C116.1 77.5827 115.336 79.4268 113.977 80.7864C112.617 82.1461 110.773 82.9099 108.85 82.9099C106.927 82.9099 105.083 82.1461 103.724 80.7864C102.364 79.4268 101.6 77.5827 101.6 75.6599V64.1499C101.6 62.2271 102.364 60.383 103.724 59.0234C105.083 57.6637 106.927 56.8999 108.85 56.8999C110.773 56.8999 112.617 57.6637 113.977 59.0234C115.336 60.383 116.1 62.2271 116.1 64.1499V64.1499Z" fill="#FCE7D0"/>
<path d="M92.6599 51.65C93.2156 51.5095 93.7867 51.439 94.3599 51.44C96.2809 51.4426 98.1225 52.2076 99.4799 53.567C100.837 54.9263 101.6 56.7689 101.6 58.69V76.8099C101.6 78.7301 100.837 80.5716 99.4793 81.9294C98.1216 83.2872 96.28 84.05 94.3599 84.05C93.439 83.9407 92.5245 83.7839 91.6199 83.58C91.5599 79.98 89.1999 78.37 87.1099 77.4V58.69C87.1099 57.0637 87.6574 55.4848 88.6642 54.2077C89.671 52.9305 91.0785 52.0296 92.6599 51.65V51.65Z" fill="#FCE7D0"/>
<path d="M87.1001 58.6901V77.4101L86.4101 77.1101L86.0001 76.8801C82.5701 75.5801 77.3101 75.0101 73.2601 74.9401H72.6601L72.6001 71.5501L82.5201 31.2101C82.7664 29.3192 83.7477 27.6014 85.2516 26.429C86.7554 25.2565 88.6606 24.7237 90.5544 24.9459C92.4483 25.1682 94.1784 26.1276 95.3699 27.6165C96.5613 29.1053 97.1183 31.0035 96.9201 32.9001L92.6601 51.6501C91.0769 52.0278 89.6672 52.9279 88.6584 54.2052C87.6496 55.4825 87.1006 57.0625 87.1001 58.6901V58.6901Z" fill="#FCE7D0"/>
<path d="M72.6002 71.5499L72.6602 74.9399C66.9375 74.8124 61.3263 76.5343 56.6602 79.8499L47.2402 34.8499L47.5202 35.7199C47.0839 33.8639 47.3963 31.9107 48.3897 30.2834C49.3831 28.656 50.9775 27.4855 52.8277 27.0252C54.6779 26.565 56.6349 26.8521 58.275 27.8243C59.9151 28.7966 61.1061 30.3758 61.5902 32.2199L72.6002 71.5499Z" fill="#FCE7D0"/>
<path d="M94.3602 84.05C96.2804 84.05 98.1219 83.2872 99.4797 81.9294C100.837 80.5716 101.6 78.7301 101.6 76.8099C101.6 78.7328 102.364 80.5768 103.724 81.9365C105.083 83.2961 106.927 84.0599 108.85 84.0599C110.773 84.0599 112.617 83.2961 113.977 81.9365C115.336 80.5768 116.1 78.7328 116.1 76.8099V103.38C116.1 117.04 100.55 128.38 81.3702 128.12H79.8702C61.1302 128.12 47.9702 113.12 47.9702 97.83V96.6299C48.0005 93.3452 48.8049 90.1138 50.3183 87.1982C51.8317 84.2827 54.0113 81.7651 56.6802 79.8499C61.3463 76.5344 66.9575 74.8124 72.6802 74.94H73.2502C77.3002 75.01 82.5602 75.5799 85.9902 76.8799L86.4302 77.11L87.1202 77.41C89.2102 78.41 91.5702 79.9799 91.6302 83.5899C92.5317 83.7902 93.4429 83.9437 94.3602 84.05V84.05Z" fill="#FCE7D0"/>
<path d="M109 84.0501C108.069 84.0373 107.149 83.8388 106.296 83.4662C105.442 83.0936 104.671 82.5543 104.029 81.8801C103.386 81.2058 102.884 80.41 102.553 79.5395C102.222 78.6689 102.068 77.7409 102.1 76.8101C102.1 80.0401 99.43 82.8101 97.43 83.7001V103.38C97.43 114.55 86.58 124 72.29 126.99C74.7597 127.572 77.2934 127.837 79.83 127.78H81.33C100.51 127.78 116.43 117.04 116.43 103.38V76.8101C116.388 78.75 115.586 80.5959 114.196 81.95C112.806 83.3042 110.94 84.0584 109 84.0501V84.0501Z" fill="#F4C7AD"/>
<path d="M116.1 65.29V76.81C116.1 78.7329 115.336 80.5769 113.977 81.9366C112.617 83.2962 110.773 84.06 108.85 84.06C106.927 84.06 105.083 83.2962 103.724 81.9366C102.364 80.5769 101.6 78.7329 101.6 76.81V65.29C101.6 63.3672 102.364 61.5232 103.724 60.1635C105.083 58.8039 106.927 58.04 108.85 58.04C110.773 58.04 112.617 58.8039 113.977 60.1635C115.336 61.5232 116.1 63.3672 116.1 65.29V65.29Z" fill="#F4C7AD"/>
<path d="M108.84 85.5501C106.523 85.5474 104.301 84.6257 102.663 82.9873C101.024 81.3488 100.103 79.1272 100.1 76.8101C100.1 76.4122 100.258 76.0307 100.539 75.7494C100.821 75.4681 101.202 75.3101 101.6 75.3101C101.998 75.3101 102.379 75.4681 102.661 75.7494C102.942 76.0307 103.1 76.4122 103.1 76.8101C103.1 78.3351 103.706 79.7976 104.784 80.8759C105.863 81.9543 107.325 82.5601 108.85 82.5601C110.375 82.5601 111.838 81.9543 112.916 80.8759C113.994 79.7976 114.6 78.3351 114.6 76.8101C114.6 76.4122 114.758 76.0307 115.039 75.7494C115.321 75.4681 115.702 75.3101 116.1 75.3101C116.498 75.3101 116.879 75.4681 117.161 75.7494C117.442 76.0307 117.6 76.4122 117.6 76.8101C117.595 79.1299 116.67 81.3529 115.027 82.9914C113.385 84.6299 111.16 85.5501 108.84 85.5501V85.5501Z" fill="#5A150B"/>
<path d="M94.2899 51.4399C93.7299 51.4393 93.1721 51.5099 92.6299 51.6499H92.7699C94.3565 52.0279 95.7741 52.9187 96.8028 54.1843C97.8316 55.4499 98.414 57.0196 98.4599 58.6499V76.8099C98.4282 78.4248 97.8669 79.9845 96.8624 81.2492C95.8578 82.5139 94.4656 83.4136 92.8999 83.8099C93.3807 83.9223 93.8684 84.0025 94.3599 84.0499C95.3034 84.0474 96.237 83.8574 97.1064 83.4909C97.9759 83.1245 98.7638 82.5888 99.4244 81.9152C100.085 81.2415 100.605 80.4433 100.955 79.5669C101.304 78.6905 101.476 77.7533 101.46 76.8099V58.6899C101.468 57.7424 101.288 56.8026 100.932 55.9246C100.575 55.0467 100.049 54.2479 99.3824 53.5741C98.716 52.9003 97.9231 52.365 97.0492 51.9987C96.1752 51.6324 95.2375 51.4425 94.2899 51.4399V51.4399Z" fill="#F4C7AD"/>
<path d="M56.9001 33.72L67.9001 73.08V75.29C69.4589 75.0537 71.0335 74.9367 72.6101 74.94L72.6001 71.55L61.6001 32.19C61.3131 31.0138 60.7362 29.9282 59.9219 29.0323C59.1076 28.1363 58.082 27.4586 56.9385 27.0608C55.795 26.6631 54.5701 26.5581 53.3756 26.7553C52.1811 26.9525 51.055 27.4458 50.1001 28.19C51.6813 28.2449 53.2013 28.8148 54.4288 29.813C55.6562 30.8113 56.524 32.1832 56.9001 33.72Z" fill="#F4C7AD"/>
<path d="M55.2002 80.16L45.7802 35.16C45.7145 34.9109 45.7145 34.6491 45.7802 34.4C45.675 32.23 46.3808 30.0984 47.7603 28.42C49.1399 26.7416 51.0945 25.6365 53.2438 25.3196C55.3932 25.0028 57.5836 25.4969 59.3888 26.7058C61.1939 27.9147 62.4848 29.7519 63.0102 31.86L72.4702 65.68L81.0002 30.94C81.2902 28.6552 82.4713 26.5775 84.2863 25.1596C86.1013 23.7416 88.4031 23.0984 90.6902 23.37C92.9919 23.6432 95.0914 24.8175 96.529 26.6356C97.9666 28.4537 98.6251 30.7674 98.3602 33.07C98.3629 33.1233 98.3629 33.1767 98.3602 33.23L94.0402 52.23L91.1102 51.57L95.4102 32.65C95.525 31.5265 95.3064 30.394 94.7816 29.3939C94.2568 28.3938 93.4492 27.5704 92.4594 27.0264C91.4696 26.4825 90.3415 26.2421 89.216 26.3352C88.0904 26.4283 87.0172 26.8508 86.1302 27.55C85.5385 28.0171 85.0455 28.5971 84.6799 29.2563C84.3142 29.9155 84.0832 30.6408 84.0002 31.39C84.0042 31.4533 84.0042 31.5168 84.0002 31.58L74.0602 71.91C73.9755 72.2299 73.7873 72.5128 73.5251 72.7147C73.2628 72.9165 72.9412 73.026 72.6102 73.026C72.2793 73.026 71.9576 72.9165 71.6954 72.7147C71.4331 72.5128 71.245 72.2299 71.1602 71.91L60.1602 32.55C59.9799 31.8118 59.6556 31.1164 59.2058 30.5038C58.756 29.8913 58.1896 29.3736 57.5392 28.9805C56.8887 28.5875 56.167 28.3268 55.4156 28.2135C54.6641 28.1001 53.8977 28.1363 53.1602 28.32C52.4233 28.5012 51.7295 28.8265 51.1189 29.2771C50.5083 29.7277 49.9929 30.2947 49.6025 30.9454C49.2121 31.5961 48.9543 32.3177 48.8441 33.0685C48.7338 33.8193 48.7733 34.5845 48.9602 35.32C48.9982 35.5115 48.9982 35.7086 48.9602 35.9L58.0902 79.54L55.2002 80.16Z" fill="#5A150B"/>
<path d="M94.3599 85.5499C93.4431 85.475 92.5336 85.3279 91.6399 85.1099L91.3299 85.0499L91.8999 82.0999L92.2299 82.1699C93.4199 82.4099 94.1399 82.5399 94.3599 82.5499C95.8797 82.5447 97.3356 81.9379 98.4093 80.8623C99.4831 79.7867 100.087 78.3297 100.09 76.8099V58.6899C100.09 57.1667 99.4855 55.7056 98.4093 54.6276C97.3331 53.5496 95.8732 52.9426 94.3499 52.9399C93.895 52.9361 93.4414 52.9898 92.9999 53.0999C91.7375 53.3922 90.6117 54.1043 89.8069 55.1199C89.0021 56.1354 88.566 57.3942 88.5699 58.6899V77.4099H85.5699V58.6899C85.5607 56.7216 86.2193 54.8083 87.4381 53.2626C88.6568 51.7169 90.3637 50.6302 92.2799 50.1799C92.934 50.0157 93.6056 49.9317 94.2799 49.9299C96.598 49.9352 98.8195 50.8591 100.458 52.4992C102.096 54.1393 103.017 56.3618 103.02 58.6799V76.8099C103.017 79.1133 102.107 81.3228 100.485 82.9591C98.8642 84.5953 96.6632 85.5262 94.3599 85.5499V85.5499Z" fill="#5A150B"/>
<path d="M82 129.62H79.86C59.23 129.62 46.46 113.12 46.46 97.83V96.63C46.4786 93.1063 47.3332 89.6374 48.9534 86.5082C50.5736 83.3791 52.9132 80.679 55.78 78.63C60.7018 75.1271 66.62 73.3004 72.66 73.42H73.23C77.23 73.49 82.8 74.06 86.5 75.42L86.67 75.5L87.05 75.7L87.72 76C89.2694 76.5677 90.6121 77.5885 91.5734 78.9297C92.5347 80.2709 93.0701 81.8704 93.11 83.52C93.1448 85.8383 92.2591 88.0758 90.647 89.7422C89.035 91.4086 86.8281 92.368 84.51 92.41L76.15 93.06C73.57 95.5134 70.98 97.96 68.38 100.4C68.0895 100.673 67.7025 100.82 67.304 100.808C66.9055 100.795 66.5281 100.625 66.255 100.335C65.9818 100.045 65.8352 99.6576 65.8474 99.2591C65.8595 98.8606 66.0295 98.4832 66.32 98.21C69.04 95.65 71.7566 93.0834 74.47 90.51C74.7202 90.2714 75.0452 90.1266 75.39 90.1L84.39 89.4C85.1516 89.3948 85.9046 89.2391 86.6058 88.9419C87.3071 88.6448 87.9427 88.2119 88.4761 87.6683C89.0095 87.1247 89.4302 86.481 89.714 85.7742C89.9978 85.0675 90.1392 84.3116 90.13 83.55C90.13 81.32 89.01 79.87 86.49 78.71L85.85 78.43L85.73 78.37L85.38 78.18C82 77 76.9 76.5 73.21 76.44H72.66C67.2616 76.3218 61.968 77.9414 57.56 81.06C55.0739 82.8314 53.0435 85.1671 51.6355 87.8755C50.2274 90.5839 49.4818 93.5876 49.46 96.64V97.83C49.46 115.05 65.18 126.62 79.86 126.62H81.36C92 126.77 102.11 123.15 108.36 116.93C112.36 112.93 114.55 108.25 114.55 103.38V65.29C114.55 63.765 113.944 62.3025 112.866 61.2242C111.787 60.1458 110.325 59.54 108.8 59.54C107.275 59.54 105.812 60.1458 104.734 61.2242C103.656 62.3025 103.05 63.765 103.05 65.29C103.05 65.6879 102.892 66.0694 102.611 66.3507C102.329 66.632 101.948 66.79 101.55 66.79C101.152 66.79 100.771 66.632 100.489 66.3507C100.208 66.0694 100.05 65.6879 100.05 65.29C100.05 62.9694 100.972 60.7438 102.613 59.1029C104.254 57.4619 106.479 56.54 108.8 56.54C111.121 56.54 113.346 57.4619 114.987 59.1029C116.628 60.7438 117.55 62.9694 117.55 65.29V103.38C117.55 109.07 115.1 114.5 110.47 119.07C103.79 125.7 93.17 129.62 82 129.62Z" fill="#5A150B"/>
</svg>
